<svg width="100" height="100" viewBox="0 0 100 100" fill="none" xmlns="http://www.w3.org/2000/svg">
<path d="M46.1958 11.7082C47.3932 8.02295 52.6068 8.02296 53.8042 11.7082L60.3276 31.7852C60.8631 33.4333 62.399 34.5491 64.1319 34.5491H85.2421C89.117 34.5491 90.7281 39.5076 87.5932 41.7852L70.5147 54.1935C69.1128 55.2121 68.5261 57.0175 69.0616 58.6656L75.585 78.7427C76.7825 82.4279 72.5645 85.4924 69.4297 83.2148L52.3511 70.8065C50.9492 69.7879 49.0508 69.7879 47.6489 70.8065L30.5703 83.2148C27.4355 85.4924 23.2176 82.4279 24.415 78.7426L30.9384 58.6656C31.4739 57.0175 30.8872 55.2121 29.4853 54.1935L12.4068 41.7852C9.27191 39.5076 10.883 34.5491 14.7579 34.5491H35.8681C37.601 34.5491 39.1369 33.4333 39.6724 31.7852L46.1958 11.7082Z" fill="url(#paint0_linear_283_462)"/>
<path opacity="0.6" d="M48.0979 37.8541C48.6966 36.0115 51.3034 36.0115 51.9021 37.8541L53.5922 43.0557C53.86 43.8798 54.6279 44.4377 55.4943 44.4377H60.9636C62.9011 44.4377 63.7066 46.9169 62.1392 48.0557L57.7145 51.2705C57.0135 51.7798 56.7202 52.6825 56.9879 53.5066L58.678 58.7082C59.2767 60.5508 57.1678 62.0831 55.6003 60.9443L51.1756 57.7295C50.4746 57.2202 49.5254 57.2202 48.8244 57.7295L44.3997 60.9443C42.8322 62.0831 40.7233 60.5508 41.322 58.7082L43.0121 53.5066C43.2798 52.6825 42.9865 51.7798 42.2855 51.2705L37.8608 48.0557C36.2934 46.9169 37.0989 44.4377 39.0364 44.4377H44.5057C45.3721 44.4377 46.14 43.8798 46.4078 43.0557L48.0979 37.8541Z" fill="url(#paint1_linear_283_462)"/>
<defs>
<linearGradient id="paint0_linear_283_462" x1="23" y1="35.5" x2="76.5" y2="89" gradientUnits="userSpaceOnUse">
<stop stop-color="#D9642C"/>
<stop offset="0.224288" stop-color="#DF7843"/>
<stop offset="1" stop-color="#FFDCB5"/>
</linearGradient>
<linearGradient id="paint1_linear_283_462" x1="43.52" y1="41.18" x2="63.86" y2="64.94" gradientUnits="userSpaceOnUse">
<stop stop-color="#EDBC9A"/>
<stop offset="1" stop-color="#ECAB55"/>
</linearGradient>
</defs>
</svg>
