<svg width="32" height="32" viewBox="0 0 32 32" fill="none" xmlns="http://www.w3.org/2000/svg">
<path d="M15.1079 2.74276C15.5728 1.8316 16.8748 1.8316 17.3397 2.74276L20.5969 9.12591C20.7789 9.48265 21.1205 9.73086 21.516 9.79375L28.5933 10.919C29.6035 11.0796 30.0059 12.3178 29.2829 13.0416L24.2188 18.1119C23.9357 18.3952 23.8053 18.7968 23.8677 19.1924L24.9845 26.271C25.1439 27.2815 24.0906 28.0466 23.1789 27.5829L16.7919 24.3333C16.4349 24.1516 16.0127 24.1516 15.6557 24.3333L9.26866 27.5829C8.35695 28.0466 7.30366 27.2815 7.46308 26.271L8.5799 19.1924C8.64231 18.7968 8.51183 18.3952 8.2288 18.1119L3.16458 13.0416C2.44169 12.3178 2.844 11.0796 3.85425 10.919L10.9315 9.79375C11.327 9.73086 11.6687 9.48265 11.8507 9.12591L15.1079 2.74276Z" fill="#C22A20"/>
<path d="M15.1079 2.74276C15.5728 1.8316 16.8748 1.8316 17.3397 2.74276L20.5969 9.12591C20.7789 9.48265 21.1205 9.73086 21.516 9.79375L28.5933 10.919C29.6035 11.0796 30.0059 12.3178 29.2829 13.0416L24.2188 18.1119C23.9357 18.3952 23.8053 18.7968 23.8677 19.1924L24.9845 26.271C25.1439 27.2815 24.0906 28.0466 23.1789 27.5829L16.7919 24.3333C16.4349 24.1516 16.0127 24.1516 15.6557 24.3333L9.26866 27.5829C8.35695 28.0466 7.30366 27.2815 7.46308 26.271L8.5799 19.1924C8.64231 18.7968 8.51183 18.3952 8.2288 18.1119L3.16458 13.0416C2.44169 12.3178 2.844 11.0796 3.85425 10.919L10.9315 9.79375C11.327 9.73086 11.6687 9.48265 11.8507 9.12591L15.1079 2.74276Z" fill="url(#paint0_linear_229_52)"/>
<path d="M15.1084 2.74227C15.5733 1.83111 16.8753 1.83111 17.3401 2.74227L20.5974 9.12542C20.7794 9.48217 21.1211 9.73037 21.5165 9.79326L28.5938 10.9185C29.604 11.0791 30.0064 12.3173 29.2835 13.0411L24.2193 18.1114C23.9362 18.3947 23.8057 18.7963 23.8681 19.1919L24.9849 26.2705C25.1445 27.281 24.0912 28.0462 23.1794 27.5824L16.7923 24.3328C16.4354 24.1511 16.0131 24.1511 15.6562 24.3328L9.26915 27.5824C8.35744 28.0462 7.30414 27.281 7.46357 26.2705L8.58039 19.1919C8.6428 18.7963 8.51232 18.3947 8.22929 18.1114L3.16507 13.0411C2.44217 12.3173 2.84449 11.0791 3.85474 10.9185L10.932 9.79326C11.3275 9.73037 11.6692 9.48217 11.8512 9.12542L15.1084 2.74227Z" fill="url(#paint1_linear_229_52)"/>
<path d="M15.1084 2.74227C15.5733 1.83111 16.8753 1.83111 17.3401 2.74227L20.5974 9.12542C20.7794 9.48217 21.1211 9.73037 21.5165 9.79326L28.5938 10.9185C29.604 11.0791 30.0064 12.3173 29.2835 13.0411L24.2193 18.1114C23.9362 18.3947 23.8057 18.7963 23.8681 19.1919L24.9849 26.2705C25.1445 27.281 24.0912 28.0462 23.1794 27.5824L16.7923 24.3328C16.4354 24.1511 16.0131 24.1511 15.6562 24.3328L9.26915 27.5824C8.35744 28.0462 7.30414 27.281 7.46357 26.2705L8.58039 19.1919C8.6428 18.7963 8.51232 18.3947 8.22929 18.1114L3.16507 13.0411C2.44217 12.3173 2.84449 11.0791 3.85474 10.9185L10.932 9.79326C11.3275 9.73037 11.6692 9.48217 11.8512 9.12542L15.1084 2.74227Z" fill="url(#paint2_radial_229_52)"/>
<path fill-rule="evenodd" clip-rule="evenodd" d="M20.2254 9.31523L16.9682 2.93208C16.6583 2.32463 15.7902 2.32463 15.4803 2.93208L12.2232 9.31523C11.9805 9.79089 11.5249 10.1218 10.9976 10.2057L3.92032 11.3309C3.24681 11.438 2.9786 12.2635 3.46052 12.746L8.52475 17.8163C8.90212 18.1941 9.07611 18.7295 8.99288 19.257L7.87607 26.3356C7.76978 27.0092 8.47197 27.5194 9.07979 27.2101L15.4668 23.9606C15.9427 23.7184 16.5058 23.7184 16.9817 23.9606L23.3687 27.2101C23.9766 27.5194 24.6787 27.0092 24.5725 26.3356L23.4557 19.257C23.3724 18.7295 23.5464 18.1941 23.9238 17.8163L28.988 12.746C29.47 12.2635 29.2017 11.438 28.5282 11.3309L21.4509 10.2057C20.9237 10.1218 20.4681 9.79089 20.2254 9.31523ZM17.3401 2.74227C16.8753 1.83111 15.5733 1.83111 15.1084 2.74227L11.8512 9.12542C11.6692 9.48217 11.3275 9.73037 10.932 9.79326L3.85474 10.9185C2.84449 11.0791 2.44217 12.3173 3.16507 13.0411L8.22929 18.1114C8.51232 18.3947 8.6428 18.7963 8.58039 19.1919L7.46357 26.2705C7.30414 27.281 8.35744 28.0462 9.26915 27.5824L15.6562 24.3328C16.0131 24.1511 16.4354 24.1511 16.7923 24.3328L23.1794 27.5824C24.0912 28.0462 25.1445 27.281 24.9849 26.2705L23.8681 19.1919C23.8057 18.7963 23.9362 18.3947 24.2193 18.1114L29.2835 13.0411C30.0064 12.3173 29.604 11.0791 28.5938 10.9185L21.5165 9.79326C21.1211 9.73037 20.7794 9.48217 20.5974 9.12542L17.3401 2.74227Z" fill="url(#paint3_linear_229_52)"/>
<path d="M15.681 9.00862C15.9223 8.59169 16.5242 8.59169 16.7655 9.00862L18.6732 12.3058C18.7619 12.4591 18.9113 12.5678 19.0845 12.6047L22.8098 13.4001C23.2809 13.5007 23.4669 14.0731 23.1449 14.4314L20.5986 17.2646C20.4802 17.3963 20.4232 17.5721 20.4415 17.7482L20.8362 21.537C20.8861 22.0161 20.3992 22.3698 19.9589 22.1744L16.4776 20.6282C16.3156 20.5563 16.1309 20.5563 15.969 20.6282L12.4877 22.1744C12.0474 22.3698 11.5605 22.0161 11.6104 21.537L12.0051 17.7482C12.0234 17.5721 11.9663 17.3963 11.8479 17.2646L9.30166 14.4314C8.97966 14.0731 9.16567 13.5007 9.63674 13.4001L13.362 12.6047C13.5353 12.5678 13.6847 12.4591 13.7735 12.3058L15.681 9.00862Z" fill="url(#paint4_linear_229_52)"/>
<path d="M24.1762 13.917C16.6187 21.0587 9.86902 17.8999 7.43886 15.4278C3.74227 9.93429 11.8542 14.3291 19.042 12.4064C24.7923 10.8681 24.8607 12.7726 24.1762 13.917Z" fill="url(#paint5_linear_229_52)"/>
<path fill-rule="evenodd" clip-rule="evenodd" d="M15.3676 4.16384C15.5219 4.24193 15.5837 4.43036 15.5055 4.5847L14.62 6.33493C14.542 6.48926 14.3535 6.55109 14.1992 6.47299C14.0449 6.3949 13.9831 6.20647 14.0611 6.05213L14.9467 4.3019C15.0248 4.14757 15.2132 4.08574 15.3676 4.16384Z" fill="#F9BE76"/>
<path d="M4.53097 12.0392C4.70395 12.0392 4.84417 11.899 4.84417 11.726C4.84417 11.5531 4.70395 11.4128 4.53097 11.4128C4.358 11.4128 4.21777 11.5531 4.21777 11.726C4.21777 11.899 4.358 12.0392 4.53097 12.0392Z" fill="#F9BE76"/>
<path d="M13.927 7.23696C14.0999 7.23696 14.2402 7.09674 14.2402 6.92376C14.2402 6.75079 14.0999 6.61057 13.927 6.61057C13.754 6.61057 13.6138 6.75079 13.6138 6.92376C13.6138 7.09674 13.754 7.23696 13.927 7.23696Z" fill="#F9BE76"/>
<path d="M13.2326 10.1572C10.8569 13.5224 11.7059 15.3545 12.4273 15.85C14.6185 16.8389 18.6111 11.0035 18.8812 9.45926C19.1514 7.91503 16.2022 5.95069 13.2326 10.1572Z" fill="url(#paint6_linear_229_52)" fill-opacity="0.6"/>
<defs>
<linearGradient id="paint0_linear_229_52" x1="16.2237" y1="0.55588" x2="23.2186" y2="27.5954" gradientUnits="userSpaceOnUse">
<stop stop-color="#FBA416" stop-opacity="0"/>
<stop offset="1" stop-color="#FDBB4E" stop-opacity="0.63"/>
</linearGradient>
<linearGradient id="paint1_linear_229_52" x1="16.2242" y1="0.555402" x2="23.219" y2="27.595" gradientUnits="userSpaceOnUse">
<stop stop-color="#FDBB4E" stop-opacity="0"/>
<stop offset="1" stop-color="#FDBB4E" stop-opacity="0.63"/>
</linearGradient>
<radialGradient id="paint2_radial_229_52" cx="0" cy="0" r="1" gradientUnits="userSpaceOnUse" gradientTransform="translate(12.5703 12.1438) rotate(52.6712) scale(18.2496)">
<stop offset="0.738765" stop-color="#9CB6DD" stop-opacity="0"/>
<stop offset="0.89825" stop-color="#C6F1FF" stop-opacity="0.37"/>
<stop offset="1" stop-color="#EFFBFF" stop-opacity="0.7"/>
</radialGradient>
<linearGradient id="paint3_linear_229_52" x1="24.9938" y1="21.4353" x2="10.5867" y2="8.38539" gradientUnits="userSpaceOnUse">
<stop stop-color="#FEFFD3" stop-opacity="0.63"/>
<stop offset="0.218803" stop-color="#FAFD4E" stop-opacity="0"/>
<stop offset="0.491108" stop-color="#FDFF8B" stop-opacity="0.56"/>
<stop offset="0.733041" stop-color="#F7F990"/>
<stop offset="1" stop-color="#FEFFB7" stop-opacity="0"/>
</linearGradient>
<linearGradient id="paint4_linear_229_52" x1="16.2233" y1="8.07152" x2="16.0145" y2="21.9567" gradientUnits="userSpaceOnUse">
<stop stop-color="#FEFFB0"/>
<stop offset="0.277442" stop-color="white" stop-opacity="0.51"/>
<stop offset="1" stop-color="#FAFD4E" stop-opacity="0.15"/>
</linearGradient>
<linearGradient id="paint5_linear_229_52" x1="15.5508" y1="13.3676" x2="15.4474" y2="18.3024" gradientUnits="userSpaceOnUse">
<stop stop-color="#FAFD4E" stop-opacity="0"/>
<stop offset="0.731853" stop-color="#FAFD4E" stop-opacity="0.46"/>
</linearGradient>
<linearGradient id="paint6_linear_229_52" x1="14.1669" y1="10.6073" x2="16.9399" y2="13.2245" gradientUnits="userSpaceOnUse">
<stop offset="0.223958" stop-color="#FAFD4E" stop-opacity="0.35"/>
<stop offset="1" stop-color="#FAFD4E" stop-opacity="0"/>
</linearGradient>
</defs>
</svg>
