<svg width="64" height="29" viewBox="0 0 64 29" fill="none" xmlns="http://www.w3.org/2000/svg">
<g opacity="0.9" clip-path="url(#clip0_155_341)">
<mask id="mask0_155_341" style="mask-type:luminance" maskUnits="userSpaceOnUse" x="0" y="0" width="64" height="29">
<path d="M63.4133 0H0V29H63.4133V0Z" fill="white"/>
</mask>
<g mask="url(#mask0_155_341)">
<path d="M11.6183 11.6686C11.9378 10.1329 11.3609 9.03225 10.3313 8.31324C9.39055 7.68301 8.20124 7.59424 6.94094 8.21561L1.70448 10.5768C0.390928 11.1715 -0.177094 12.7072 0.390928 13.9943C0.985578 15.308 2.49439 15.8761 3.80794 15.308L4.50022 14.9884L3.37305 21.1133C3.05354 22.9596 4.25171 24.4686 5.88476 24.7882C7.61548 25.1078 9.30177 23.9715 9.58578 22.2406L11.6183 11.6686Z" fill="url(#paint0_linear_155_341)"/>
<path d="M59.2521 7.86049C56.3675 7.44332 53.4567 9.12984 52.347 11.5088L52.5334 10.4702C53.0039 8.36648 52.1254 7.80725 50.6252 7.80725H48.6818C46.8354 7.80725 46.4182 8.8103 46.1967 9.97312L43.9331 22.5246C43.7467 23.3768 43.8712 24.8503 45.5308 24.8503H48.229C49.8267 24.8503 50.1372 23.5987 50.3591 22.4004L51.4507 16.3732C51.7082 14.9973 51.9213 14.3316 52.3914 13.8256C53.1103 13.0089 54.5572 12.6361 55.5602 13.4527C56.1545 13.9498 56.3764 14.802 56.2167 16.0003L55.1252 22.5246C54.8855 23.9715 55.4979 24.8503 56.6962 24.8503H59.394C60.9294 24.8503 61.2403 23.6608 61.4623 22.4004L63.0418 14.225C63.7784 11.278 62.7402 8.36648 59.2521 7.86049Z" fill="url(#paint1_linear_155_341)"/>
<path d="M41.9536 6.17404C43.6693 6.17404 45.0601 4.79499 45.0601 3.09385C45.0601 1.39271 43.6693 0.0136719 41.9536 0.0136719C40.238 0.0136719 38.8472 1.39271 38.8472 3.09385C38.8472 4.79499 40.238 6.17404 41.9536 6.17404Z" fill="url(#paint2_linear_155_341)"/>
<path d="M42.1497 22.3827C41.9277 23.6964 41.555 24.8326 40.0195 24.8326H37.2948C35.9812 24.8326 35.5019 23.8562 35.7593 22.5691L37.9959 9.95543C38.2178 8.60619 38.8124 7.78955 40.4812 7.78955H42.5491C44.3061 7.78955 44.7411 8.64169 44.3684 10.4525L42.1497 22.3827Z" fill="url(#paint3_linear_155_341)"/>
<path d="M12.168 7.78955C12.8603 8.60619 13.6768 9.60924 13.2596 12.0592L12.1946 17.8112L12.381 22.427C12.4165 24.0958 13.233 24.8148 14.6087 24.8148H18.1233C19.215 24.8148 19.6943 23.9627 20.1292 22.9064L22.7918 16.3466L23.0758 22.6223C23.1113 23.9982 23.7947 24.8503 25.0816 24.8503H29.0667C30.1938 24.8503 30.6642 24.158 31.1701 22.9419L36.2823 10.3904C36.8415 9.10329 36.5042 7.81615 35.1196 7.81615H32.5724C31.6316 7.81615 30.9749 8.13573 30.5932 9.04115L27.1407 17.4384L26.8212 9.93768C26.7591 8.33989 26.0046 7.8073 25.0905 7.8073H22.49C21.4516 7.8073 20.8569 8.21562 20.5463 8.99676L17.0938 17.4739L16.7743 9.75127C16.7388 8.3044 16.2418 7.8073 15.0791 7.8073H12.8603H12.168V7.78955Z" fill="url(#paint4_linear_155_341)"/>
</g>
</g>
<defs>
<linearGradient id="paint0_linear_155_341" x1="5.93619" y1="27.1895" x2="5.93619" y2="7.39313" gradientUnits="userSpaceOnUse">
<stop stop-color="#0167CA"/>
<stop offset="1" stop-color="#38A8FA"/>
</linearGradient>
<linearGradient id="paint1_linear_155_341" x1="53.5758" y1="25.2847" x2="53.5758" y2="7.36711" gradientUnits="userSpaceOnUse">
<stop stop-color="#C8C7C7"/>
<stop offset="0.0762789" stop-color="#D6D5D5"/>
<stop offset="0.216" stop-color="#E8E8E8"/>
<stop offset="0.3802" stop-color="#F5F5F5"/>
<stop offset="0.5898" stop-color="#FDFDFD"/>
<stop offset="1" stop-color="white"/>
</linearGradient>
<linearGradient id="paint2_linear_155_341" x1="41.9544" y1="7.74197" x2="41.9544" y2="-1.05588" gradientUnits="userSpaceOnUse">
<stop stop-color="#0167CA"/>
<stop offset="1" stop-color="#38A8FA"/>
</linearGradient>
<linearGradient id="paint3_linear_155_341" x1="24.3674" y1="25.2838" x2="24.3674" y2="7.40505" gradientUnits="userSpaceOnUse">
<stop stop-color="#C8C7C7"/>
<stop offset="0.0762789" stop-color="#D6D5D5"/>
<stop offset="0.216" stop-color="#E8E8E8"/>
<stop offset="0.3802" stop-color="#F5F5F5"/>
<stop offset="0.5898" stop-color="#FDFDFD"/>
<stop offset="1" stop-color="white"/>
</linearGradient>
<linearGradient id="paint4_linear_155_341" x1="24.3668" y1="25.2838" x2="24.3668" y2="7.40505" gradientUnits="userSpaceOnUse">
<stop stop-color="#C8C7C7"/>
<stop offset="0.0762789" stop-color="#D6D5D5"/>
<stop offset="0.216" stop-color="#E8E8E8"/>
<stop offset="0.3802" stop-color="#F5F5F5"/>
<stop offset="0.5898" stop-color="#FDFDFD"/>
<stop offset="1" stop-color="white"/>
</linearGradient>
<clipPath id="clip0_155_341">
<rect width="63.4133" height="29" fill="white"/>
</clipPath>
</defs>
</svg>
