<svg width="100" height="100" viewBox="0 0 100 100" fill="none" xmlns="http://www.w3.org/2000/svg">
<path d="M24.7357 15.7673L50.0013 41.0329L75.136 15.8982C75.6912 15.3072 76.36 14.8345 77.1023 14.5083C77.8447 14.1822 78.6452 14.0093 79.456 14C81.192 14 82.8568 14.6896 84.0844 15.9171C85.3119 17.1446 86.0015 18.8095 86.0015 20.5455C86.0167 21.348 85.8679 22.1451 85.564 22.888C85.26 23.6309 84.8075 24.3038 84.2342 24.8655L58.7722 50.0002L84.2342 75.4622C85.313 76.5176 85.9456 77.9468 86.0015 79.4549C86.0015 81.1909 85.3119 82.8558 84.0844 84.0833C82.8568 85.3108 81.192 86.0004 79.456 86.0004C78.6218 86.035 77.7895 85.8958 77.012 85.5916C76.2345 85.2873 75.5288 84.8247 74.9396 84.2331L50.0013 58.9675L24.8011 84.1677C24.2481 84.7389 23.5874 85.195 22.8571 85.5095C22.1269 85.8241 21.3416 85.9909 20.5466 86.0004C18.8106 86.0004 17.1457 85.3108 15.9182 84.0833C14.6907 82.8558 14.0011 81.1909 14.0011 79.4549C13.9858 78.6524 14.1347 77.8553 14.4386 77.1124C14.7425 76.3695 15.195 75.6966 15.7683 75.1349L41.2303 50.0002L15.7683 24.5382C14.6896 23.4828 14.057 22.0537 14.0011 20.5455C14.0011 18.8095 14.6907 17.1446 15.9182 15.9171C17.1457 14.6896 18.8106 14 20.5466 14C22.1175 14.0196 23.6229 14.6545 24.7357 15.7673Z" fill="url(#paint0_linear_283_603)" stroke="#D1E5FF" stroke-linecap="round"/>
<defs>
<linearGradient id="paint0_linear_283_603" x1="50.0013" y1="14" x2="70.1635" y2="75.4443" gradientUnits="userSpaceOnUse">
<stop stop-color="#597AA4"/>
<stop offset="1" stop-color="#D6EAF5"/>
</linearGradient>
</defs>
</svg>
