<svg width="91" height="30" viewBox="0 0 91 30" fill="none" xmlns="http://www.w3.org/2000/svg">
<g clip-path="url(#clip0_160_139)">
<path d="M24.1789 14.2036C21.6247 12.7442 19.1239 11.316 16.3965 9.75862C17.5344 9.13014 18.4496 8.61023 19.3805 8.12023C19.6295 7.98915 19.866 8.17702 20.0853 8.3017C22.3563 9.59226 24.667 10.8189 26.89 12.1868C31.1193 14.7892 30.8569 21.0207 26.4612 23.3497C26.2192 23.478 25.9823 23.6494 25.6693 23.5849C25.373 23.321 25.4693 22.9638 25.4679 22.6426C25.4591 20.5421 25.4086 18.4399 25.4861 16.3421C25.5247 15.2982 25.1944 14.6174 24.1789 14.2036ZM2.56231 23.7587C1.9318 22.446 1.61739 21.1499 1.921 19.7779C2.31626 19.6479 2.53024 19.8757 2.76315 20.0068C4.72001 21.109 6.69003 22.1902 8.61601 23.344C9.36415 23.7922 9.97696 23.7917 10.7207 23.3563C13.0463 21.9948 15.4011 20.6823 17.7487 19.358C18.0305 19.1991 18.2844 18.9348 18.7753 19.0466C18.7753 20.0525 18.7893 21.0773 18.767 22.1012C18.7602 22.415 18.4658 22.5472 18.2193 22.6876C16.0734 23.9107 13.9413 25.159 11.7799 26.3545C8.42126 28.2119 4.66718 27.1591 2.56231 23.7588V23.7587Z" fill="white" fill-opacity="0.8"/>
<path d="M2.66088 17.4889C0.43349 15.7796 -0.489501 13.0624 0.251727 10.5066C0.867053 8.38491 2.71944 6.47397 4.30484 6.33281C4.52273 6.59949 4.43362 6.92011 4.4348 7.21687C4.44374 9.42895 4.4689 11.6417 4.42636 13.8529C4.41066 14.6579 4.70027 15.1451 5.40184 15.531C7.73944 16.8165 10.0534 18.1452 12.3698 19.4687C12.6776 19.6445 13.044 19.758 13.3058 20.2134C12.418 20.8266 11.4788 21.3489 10.4993 21.8011C10.2774 21.9037 10.059 21.7503 9.86641 21.6397C7.4621 20.2604 5.06026 18.8768 2.66088 17.4889ZM14.9477 8.95508C13.6788 9.67115 12.4099 10.3869 11.1408 11.1025C11.1408 9.84637 11.1285 8.80283 11.1502 7.75998C11.1553 7.52337 11.3953 7.39919 11.5932 7.28744C13.9408 5.96161 16.2435 4.54806 18.6462 3.33043C23.0474 1.10004 28.3065 4.57107 28.071 9.48054C28.0605 9.70118 28.0745 9.92819 27.9209 10.1228C27.5339 10.2502 27.279 9.96819 27.0027 9.81293C25.0925 8.73982 23.1812 7.66806 21.2936 6.55647C20.5595 6.1241 19.916 6.09688 19.1727 6.54639C17.804 7.3745 16.394 8.13522 14.9477 8.95508ZM20.9973 28.424C18.2357 30.43 14.2564 30.3874 12.6973 28.3363C13.0883 27.887 13.6475 27.6677 14.1453 27.3785C15.8693 26.377 17.6022 25.3899 19.3493 24.4291C19.9627 24.0916 20.2256 23.6421 20.2201 22.9436C20.1993 20.1995 20.21 17.4554 20.2188 14.7113C20.2199 14.4174 20.1238 14.0967 20.4186 13.7523C21.3877 14.1357 22.2547 14.7461 23.156 15.2859C23.4019 15.4332 23.3603 15.729 23.3601 15.9794C23.3587 18.6115 23.4043 21.2447 23.3356 23.875C23.2877 25.7023 22.4277 27.1939 20.9973 28.424Z" fill="white" fill-opacity="0.8"/>
<path d="M7.52251 3.08976C10.0203 -0.902034 15.3465 -0.583095 17.176 1.55051C16.7782 2.04136 16.1837 2.24519 15.6614 2.54816C13.9875 3.5191 12.3236 4.5092 10.6219 5.42972C9.93639 5.80058 9.66468 6.27731 9.67125 7.0345C9.69421 9.71911 9.68256 12.4039 9.67496 15.0887C9.67395 15.4159 9.75598 15.7594 9.49438 16.1931C8.53578 15.7134 7.59407 15.1962 6.70904 14.5785C6.47733 14.4168 6.54061 14.1186 6.54061 13.8714C6.5396 11.2987 6.52931 8.72566 6.55209 6.15296C6.56155 5.06642 6.94852 4.07566 7.52251 3.08959V3.08976Z" fill="white" fill-opacity="0.8"/>
<path d="M15.1242 19.2092C13.6872 18.7996 12.5454 17.9261 11.3143 17.2211C11.0674 17.0795 11.1008 16.7826 11.1001 16.5318C11.0977 15.4976 11.1163 14.4628 11.0913 13.4292C11.0795 12.9463 11.2711 12.6546 11.6891 12.4292C12.6016 11.9357 13.5039 11.4237 14.3954 10.8934C14.7759 10.6675 15.1096 10.6584 15.4926 10.8833C16.4111 11.4227 17.3363 11.9515 18.2742 12.4563C18.6787 12.6741 18.803 12.9796 18.7963 13.4122C18.7802 14.446 18.7709 15.481 18.8021 16.5143C18.817 17.0093 18.5973 17.281 18.1893 17.5028C17.1796 18.0512 16.1834 18.6245 15.1242 19.2092Z" fill="white" fill-opacity="0.8"/>
</g>
<path d="M46.2273 14.6818C46.2273 15.9091 46.0057 16.9697 45.5625 17.8636C45.1193 18.7576 44.5114 19.447 43.7386 19.9318C42.9659 20.4167 42.0833 20.6591 41.0909 20.6591C40.0985 20.6591 39.2159 20.4167 38.4432 19.9318C37.6705 19.447 37.0625 18.7576 36.6193 17.8636C36.1761 16.9697 35.9545 15.9091 35.9545 14.6818C35.9545 13.4545 36.1761 12.3939 36.6193 11.5C37.0625 10.6061 37.6705 9.91667 38.4432 9.43182C39.2159 8.94697 40.0985 8.70455 41.0909 8.70455C42.0833 8.70455 42.9659 8.94697 43.7386 9.43182C44.5114 9.91667 45.1193 10.6061 45.5625 11.5C46.0057 12.3939 46.2273 13.4545 46.2273 14.6818ZM44.8636 14.6818C44.8636 13.6742 44.6951 12.8239 44.358 12.1307C44.0246 11.4375 43.572 10.9129 43 10.5568C42.4318 10.2008 41.7955 10.0227 41.0909 10.0227C40.3864 10.0227 39.7481 10.2008 39.1761 10.5568C38.608 10.9129 38.1553 11.4375 37.8182 12.1307C37.4848 12.8239 37.3182 13.6742 37.3182 14.6818C37.3182 15.6894 37.4848 16.5398 37.8182 17.233C38.1553 17.9261 38.608 18.4508 39.1761 18.8068C39.7481 19.1629 40.3864 19.3409 41.0909 19.3409C41.7955 19.3409 42.4318 19.1629 43 18.8068C43.572 18.4508 44.0246 17.9261 44.358 17.233C44.6951 16.5398 44.8636 15.6894 44.8636 14.6818ZM48.4148 23.7727V11.7727H49.7102V13.1591H49.8693C49.9678 13.0076 50.1042 12.8144 50.2784 12.5795C50.4564 12.3409 50.7102 12.1288 51.0398 11.9432C51.3731 11.7538 51.8239 11.6591 52.392 11.6591C53.1269 11.6591 53.7746 11.8428 54.3352 12.2102C54.8958 12.5777 55.3333 13.0985 55.6477 13.7727C55.9621 14.447 56.1193 15.2424 56.1193 16.1591C56.1193 17.0833 55.9621 17.8845 55.6477 18.5625C55.3333 19.2367 54.8977 19.7595 54.3409 20.1307C53.7841 20.4981 53.142 20.6818 52.4148 20.6818C51.8542 20.6818 51.4053 20.589 51.0682 20.4034C50.7311 20.214 50.4716 20 50.2898 19.7614C50.108 19.5189 49.9678 19.3182 49.8693 19.1591H49.7557V23.7727H48.4148ZM49.733 16.1364C49.733 16.7955 49.8295 17.3769 50.0227 17.8807C50.2159 18.3807 50.4981 18.7727 50.8693 19.0568C51.2405 19.3371 51.6951 19.4773 52.233 19.4773C52.7936 19.4773 53.2614 19.3295 53.6364 19.0341C54.0152 18.7348 54.2992 18.3333 54.4886 17.8295C54.6818 17.322 54.7784 16.7576 54.7784 16.1364C54.7784 15.5227 54.6837 14.9697 54.4943 14.4773C54.3087 13.9811 54.0265 13.589 53.6477 13.3011C53.2727 13.0095 52.8011 12.8636 52.233 12.8636C51.6875 12.8636 51.2292 13.0019 50.858 13.2784C50.4867 13.5511 50.2064 13.9337 50.017 14.4261C49.8277 14.9148 49.733 15.4848 49.733 16.1364ZM61.8239 20.6818C60.983 20.6818 60.2576 20.4962 59.6477 20.125C59.0417 19.75 58.5739 19.2273 58.2443 18.5568C57.9186 17.8826 57.7557 17.0985 57.7557 16.2045C57.7557 15.3106 57.9186 14.5227 58.2443 13.8409C58.5739 13.1553 59.0322 12.6212 59.6193 12.2386C60.2102 11.8523 60.8996 11.6591 61.6875 11.6591C62.142 11.6591 62.5909 11.7348 63.0341 11.8864C63.4773 12.0379 63.8807 12.2841 64.2443 12.625C64.608 12.9621 64.8977 13.4091 65.1136 13.9659C65.3295 14.5227 65.4375 15.2083 65.4375 16.0227V16.5909H58.7102V15.4318H64.0739C64.0739 14.9394 63.9754 14.5 63.7784 14.1136C63.5852 13.7273 63.3087 13.4223 62.9489 13.1989C62.5928 12.9754 62.1723 12.8636 61.6875 12.8636C61.1534 12.8636 60.6913 12.9962 60.3011 13.2614C59.9148 13.5227 59.6174 13.8636 59.4091 14.2841C59.2008 14.7045 59.0966 15.1553 59.0966 15.6364V16.4091C59.0966 17.0682 59.2102 17.6269 59.4375 18.0852C59.6686 18.5398 59.9886 18.8864 60.3977 19.125C60.8068 19.3598 61.2822 19.4773 61.8239 19.4773C62.1761 19.4773 62.4943 19.428 62.7784 19.3295C63.0663 19.2273 63.3144 19.0758 63.5227 18.875C63.7311 18.6705 63.892 18.4167 64.0057 18.1136L65.3011 18.4773C65.1648 18.9167 64.9356 19.303 64.6136 19.6364C64.2917 19.9659 63.8939 20.2235 63.4205 20.4091C62.947 20.5909 62.4148 20.6818 61.8239 20.6818ZM68.8182 15.25V20.5H67.4773V11.7727H68.7727V13.1364H68.8864C69.0909 12.6932 69.4015 12.3371 69.8182 12.0682C70.2348 11.7955 70.7727 11.6591 71.4318 11.6591C72.0227 11.6591 72.5398 11.7803 72.983 12.0227C73.4261 12.2614 73.7708 12.625 74.017 13.1136C74.2633 13.5985 74.3864 14.2121 74.3864 14.9545V20.5H73.0455V15.0455C73.0455 14.3598 72.8674 13.8258 72.5114 13.4432C72.1553 13.0568 71.6667 12.8636 71.0455 12.8636C70.6174 12.8636 70.2348 12.9564 69.8977 13.142C69.5644 13.3277 69.3011 13.5985 69.108 13.9545C68.9148 14.3106 68.8182 14.7424 68.8182 15.25ZM77.4957 20.5H76.0185L80.2912 8.86364H81.7457L86.0185 20.5H84.5412L81.0639 10.7045H80.973L77.4957 20.5ZM78.0412 15.9545H83.9957V17.2045H78.0412V15.9545ZM89.2401 8.86364V20.5H87.831V8.86364H89.2401Z" fill="white" fill-opacity="0.8"/>
<defs>
<clipPath id="clip0_160_139">
<rect width="30" height="30" fill="white"/>
</clipPath>
</defs>
</svg>
